<mxfile host="app.diagrams.net" modified="2024-07-03T01:30:40.778Z" agent="Mozilla/5.0 (Macintosh; Intel Mac OS X 10_15_7) AppleWebKit/537.36 (KHTML, like Gecko) Chrome/125.0.0.0 Safari/537.36" etag="_BEo0m56uKgkQO_S82MW" version="21.2.7" type="device">
  <diagram id="C5RBs43oDa-KdzZeNtuy" name="Page-1">
    <mxGraphModel dx="234" dy="649" grid="1" gridSize="10" guides="1" tooltips="1" connect="1" arrows="1" fold="1" page="1" pageScale="1" pageWidth="827" pageHeight="1169" math="0" shadow="0">
      <root>
        <mxCell id="WIyWlLk6GJQsqaUBKTNV-0" />
        <mxCell id="WIyWlLk6GJQsqaUBKTNV-1" parent="WIyWlLk6GJQsqaUBKTNV-0" />
        <mxCell id="DCwz5v0j-47iQBB57x_e-25" style="edgeStyle=orthogonalEdgeStyle;rounded=0;orthogonalLoop=1;jettySize=auto;html=1;entryX=0.5;entryY=0;entryDx=0;entryDy=0;" edge="1" parent="WIyWlLk6GJQsqaUBKTNV-1" source="DCwz5v0j-47iQBB57x_e-0" target="DCwz5v0j-47iQBB57x_e-1">
          <mxGeometry relative="1" as="geometry" />
        </mxCell>
        <mxCell id="DCwz5v0j-47iQBB57x_e-0" value="tank" style="whiteSpace=wrap;html=1;" vertex="1" parent="WIyWlLk6GJQsqaUBKTNV-1">
          <mxGeometry x="250" y="30" width="120" height="40" as="geometry" />
        </mxCell>
        <mxCell id="DCwz5v0j-47iQBB57x_e-1" value="bullet" style="whiteSpace=wrap;html=1;" vertex="1" parent="WIyWlLk6GJQsqaUBKTNV-1">
          <mxGeometry x="150" y="120" width="120" height="40" as="geometry" />
        </mxCell>
        <mxCell id="DCwz5v0j-47iQBB57x_e-2" value="wall" style="whiteSpace=wrap;html=1;" vertex="1" parent="WIyWlLk6GJQsqaUBKTNV-1">
          <mxGeometry x="680" y="160" width="120" height="40" as="geometry" />
        </mxCell>
        <mxCell id="DCwz5v0j-47iQBB57x_e-19" style="edgeStyle=orthogonalEdgeStyle;rounded=0;orthogonalLoop=1;jettySize=auto;html=1;entryX=0.5;entryY=0;entryDx=0;entryDy=0;" edge="1" parent="WIyWlLk6GJQsqaUBKTNV-1" source="DCwz5v0j-47iQBB57x_e-3" target="DCwz5v0j-47iQBB57x_e-2">
          <mxGeometry relative="1" as="geometry" />
        </mxCell>
        <mxCell id="DCwz5v0j-47iQBB57x_e-21" style="edgeStyle=orthogonalEdgeStyle;rounded=0;orthogonalLoop=1;jettySize=auto;html=1;entryX=0.5;entryY=0;entryDx=0;entryDy=0;" edge="1" parent="WIyWlLk6GJQsqaUBKTNV-1" source="DCwz5v0j-47iQBB57x_e-3" target="DCwz5v0j-47iQBB57x_e-20">
          <mxGeometry relative="1" as="geometry" />
        </mxCell>
        <mxCell id="DCwz5v0j-47iQBB57x_e-3" value="map" style="whiteSpace=wrap;html=1;" vertex="1" parent="WIyWlLk6GJQsqaUBKTNV-1">
          <mxGeometry x="600" y="80" width="120" height="40" as="geometry" />
        </mxCell>
        <mxCell id="DCwz5v0j-47iQBB57x_e-15" style="edgeStyle=orthogonalEdgeStyle;rounded=0;orthogonalLoop=1;jettySize=auto;html=1;entryX=0.175;entryY=-0.025;entryDx=0;entryDy=0;entryPerimeter=0;" edge="1" parent="WIyWlLk6GJQsqaUBKTNV-1" source="DCwz5v0j-47iQBB57x_e-4" target="DCwz5v0j-47iQBB57x_e-9">
          <mxGeometry relative="1" as="geometry" />
        </mxCell>
        <mxCell id="DCwz5v0j-47iQBB57x_e-16" style="edgeStyle=orthogonalEdgeStyle;rounded=0;orthogonalLoop=1;jettySize=auto;html=1;" edge="1" parent="WIyWlLk6GJQsqaUBKTNV-1" source="DCwz5v0j-47iQBB57x_e-4" target="DCwz5v0j-47iQBB57x_e-8">
          <mxGeometry relative="1" as="geometry" />
        </mxCell>
        <mxCell id="DCwz5v0j-47iQBB57x_e-17" style="edgeStyle=orthogonalEdgeStyle;rounded=0;orthogonalLoop=1;jettySize=auto;html=1;entryX=0.75;entryY=0;entryDx=0;entryDy=0;" edge="1" parent="WIyWlLk6GJQsqaUBKTNV-1" source="DCwz5v0j-47iQBB57x_e-4" target="DCwz5v0j-47iQBB57x_e-12">
          <mxGeometry relative="1" as="geometry" />
        </mxCell>
        <mxCell id="DCwz5v0j-47iQBB57x_e-24" style="edgeStyle=orthogonalEdgeStyle;rounded=0;orthogonalLoop=1;jettySize=auto;html=1;entryX=0.5;entryY=1;entryDx=0;entryDy=0;" edge="1" parent="WIyWlLk6GJQsqaUBKTNV-1" source="DCwz5v0j-47iQBB57x_e-4" target="DCwz5v0j-47iQBB57x_e-0">
          <mxGeometry relative="1" as="geometry" />
        </mxCell>
        <mxCell id="DCwz5v0j-47iQBB57x_e-4" value="power up" style="whiteSpace=wrap;html=1;" vertex="1" parent="WIyWlLk6GJQsqaUBKTNV-1">
          <mxGeometry x="294" y="220" width="120" height="40" as="geometry" />
        </mxCell>
        <mxCell id="DCwz5v0j-47iQBB57x_e-22" style="edgeStyle=orthogonalEdgeStyle;rounded=0;orthogonalLoop=1;jettySize=auto;html=1;entryX=0.5;entryY=0;entryDx=0;entryDy=0;" edge="1" parent="WIyWlLk6GJQsqaUBKTNV-1" source="DCwz5v0j-47iQBB57x_e-5" target="DCwz5v0j-47iQBB57x_e-6">
          <mxGeometry relative="1" as="geometry" />
        </mxCell>
        <mxCell id="DCwz5v0j-47iQBB57x_e-23" style="edgeStyle=orthogonalEdgeStyle;rounded=0;orthogonalLoop=1;jettySize=auto;html=1;entryX=0.5;entryY=0;entryDx=0;entryDy=0;" edge="1" parent="WIyWlLk6GJQsqaUBKTNV-1" source="DCwz5v0j-47iQBB57x_e-5" target="DCwz5v0j-47iQBB57x_e-7">
          <mxGeometry relative="1" as="geometry" />
        </mxCell>
        <mxCell id="DCwz5v0j-47iQBB57x_e-5" value="menu" style="whiteSpace=wrap;html=1;" vertex="1" parent="WIyWlLk6GJQsqaUBKTNV-1">
          <mxGeometry x="600" y="240" width="120" height="40" as="geometry" />
        </mxCell>
        <mxCell id="DCwz5v0j-47iQBB57x_e-6" value="startscreen" style="whiteSpace=wrap;html=1;" vertex="1" parent="WIyWlLk6GJQsqaUBKTNV-1">
          <mxGeometry x="540" y="320" width="120" height="40" as="geometry" />
        </mxCell>
        <mxCell id="DCwz5v0j-47iQBB57x_e-7" value="endscreen" style="whiteSpace=wrap;html=1;" vertex="1" parent="WIyWlLk6GJQsqaUBKTNV-1">
          <mxGeometry x="680" y="320" width="120" height="40" as="geometry" />
        </mxCell>
        <mxCell id="DCwz5v0j-47iQBB57x_e-8" value="speed" style="whiteSpace=wrap;html=1;" vertex="1" parent="WIyWlLk6GJQsqaUBKTNV-1">
          <mxGeometry x="320" y="400" width="120" height="40" as="geometry" />
        </mxCell>
        <mxCell id="DCwz5v0j-47iQBB57x_e-9" value="shootingSpeed" style="whiteSpace=wrap;html=1;" vertex="1" parent="WIyWlLk6GJQsqaUBKTNV-1">
          <mxGeometry x="210" y="350" width="120" height="40" as="geometry" />
        </mxCell>
        <mxCell id="DCwz5v0j-47iQBB57x_e-12" value="bulletDamage" style="whiteSpace=wrap;html=1;" vertex="1" parent="WIyWlLk6GJQsqaUBKTNV-1">
          <mxGeometry x="400" y="350" width="120" height="40" as="geometry" />
        </mxCell>
        <mxCell id="DCwz5v0j-47iQBB57x_e-20" value="barrel" style="whiteSpace=wrap;html=1;" vertex="1" parent="WIyWlLk6GJQsqaUBKTNV-1">
          <mxGeometry x="540" y="160" width="120" height="40" as="geometry" />
        </mxCell>
      </root>
    </mxGraphModel>
  </diagram>
</mxfile>
